<svg width="26" height="26" viewBox="0 0 26 26" fill="none" xmlns="http://www.w3.org/2000/svg">
<path d="M2.7414 15.5948C2.51103 17.0607 3.54099 18.078 4.80204 18.585C9.6367 20.529 16.3646 20.529 21.1992 18.585C22.4603 18.078 23.4902 17.0607 23.2599 15.5948C23.1183 14.694 22.4183 13.9439 21.8996 13.2115C21.2202 12.2403 21.1527 11.181 21.1526 10.054C21.1526 5.69866 17.5029 2.16797 13.0007 2.16797C8.49846 2.16797 4.84871 5.69866 4.84871 10.054C4.8486 11.181 4.7811 12.2403 4.10173 13.2115C3.58306 13.9439 2.88298 14.694 2.7414 15.5948Z" stroke="black" stroke-width="1.5" stroke-linecap="round" stroke-linejoin="round"/>
<path d="M9.75 22.75C10.6125 23.4237 11.7515 23.8333 13 23.8333C14.2485 23.8333 15.3876 23.4237 16.25 22.75" stroke="black" stroke-width="1.5" stroke-linecap="round" stroke-linejoin="round"/>
</svg>
