<svg width="116" height="43" viewBox="0 0 116 43" fill="none" xmlns="http://www.w3.org/2000/svg">
<path fill-rule="evenodd" clip-rule="evenodd" d="M21.5 43C5.37616 43 3.65507e-08 37.6238 1.46171e-07 21.5C2.55791e-07 5.37616 5.37616 -2.55791e-07 21.5 -1.46171e-07C37.6238 -3.65507e-08 43 5.37616 43 21.5C43 37.6238 37.6238 43 21.5 43Z" fill="white"/>
<path fill-rule="evenodd" clip-rule="evenodd" d="M21.5 43C5.37616 43 3.65507e-08 37.6238 1.46171e-07 21.5C2.55791e-07 5.37616 5.37616 -2.55791e-07 21.5 -1.46171e-07C37.6238 -3.65507e-08 43 5.37616 43 21.5C43 37.6238 37.6238 43 21.5 43Z" fill="url(#paint0_radial_305_4990)"/>
<path d="M14.3208 20.4194C14.2004 20.2928 13.9876 20.3844 13.9967 20.5588C14.0311 21.2245 14.0483 21.5573 13.9289 21.8569C13.8095 22.1564 13.568 22.3862 13.0851 22.8457C12.9586 22.9661 13.0501 23.1789 13.2245 23.1698C13.8902 23.1354 14.2231 23.1182 14.5226 23.2376C14.8222 23.357 15.0519 23.5984 15.5114 24.0814C15.6318 24.2079 15.8446 24.1164 15.8356 23.942C15.8011 23.2763 15.7839 22.9434 15.9033 22.6439C16.0227 22.3443 16.2642 22.1146 16.7471 21.6551C16.8736 21.5347 16.7821 21.3219 16.6077 21.3309C15.942 21.3654 15.6092 21.3826 15.3096 21.2632C15.01 21.1438 14.7803 20.9023 14.3208 20.4194Z" fill="url(#paint1_linear_305_4990)" fill-opacity="0.7"/>
<path d="M11.8814 26.5287C11.761 26.4022 11.5482 26.4937 11.5572 26.6681C11.5917 27.3338 11.6089 27.6667 11.4895 27.9663C11.3701 28.2658 11.1286 28.4956 10.6457 28.9551C10.5191 29.0754 10.6106 29.2882 10.785 29.2792C11.4508 29.2448 11.7836 29.2275 12.0832 29.3469C12.3827 29.4663 12.6125 29.7078 13.072 30.1908C13.1923 30.3173 13.4051 30.2258 13.3961 30.0514C13.3617 29.3857 13.3445 29.0528 13.4639 28.7532C13.5833 28.4537 13.8247 28.2239 14.3077 27.7644C14.4342 27.6441 14.3427 27.4313 14.1683 27.4403C13.5026 27.4747 13.1697 27.492 12.8702 27.3726C12.5706 27.2532 12.3408 27.0117 11.8814 26.5287Z" fill="url(#paint2_linear_305_4990)" fill-opacity="0.7"/>
<path d="M15.5415 33.8569C15.4211 33.7303 15.2083 33.8219 15.2174 33.9963C15.2518 34.662 15.269 34.9948 15.1496 35.2944C15.0302 35.5939 14.7888 35.8237 14.3058 36.2832C14.1793 36.4036 14.2708 36.6164 14.4452 36.6073C15.1109 36.5729 15.4438 36.5557 15.7433 36.6751C16.0429 36.7945 16.2726 37.0359 16.7321 37.5189C16.8525 37.6454 17.0653 37.5539 17.0563 37.3795C17.0218 36.7138 17.0046 36.3809 17.124 36.0814C17.2434 35.7818 17.4849 35.5521 17.9678 35.0926C18.0943 34.9722 18.0028 34.7594 17.8284 34.7684C17.1627 34.8029 16.8299 34.8201 16.5303 34.7007C16.2307 34.5813 16.001 34.3398 15.5415 33.8569Z" fill="url(#paint3_linear_305_4990)" fill-opacity="0.7"/>
<path d="M26.5337 25.31C26.4133 25.1835 26.2005 25.275 26.2096 25.4494C26.244 26.1151 26.2612 26.448 26.1418 26.7475C26.0224 27.0471 25.7809 27.2768 25.298 27.7363C25.1715 27.8567 25.263 28.0695 25.4374 28.0605C26.1031 28.026 26.436 28.0088 26.7355 28.1282C27.0351 28.2476 27.2648 28.4891 27.7243 28.972C27.8447 29.0985 28.0575 29.007 28.0485 28.8326C28.014 28.1669 27.9968 27.834 28.1162 27.5345C28.2356 27.2349 28.4771 27.0052 28.96 26.5457C29.0865 26.4253 28.995 26.2125 28.8206 26.2215C28.1549 26.256 27.8221 26.2732 27.5225 26.1538C27.2229 26.0344 26.9932 25.7929 26.5337 25.31Z" fill="url(#paint4_linear_305_4990)" fill-opacity="0.7"/>
<path d="M30.19 22.8647C30.0696 22.7382 29.8568 22.8297 29.8658 23.0041C29.9002 23.6698 29.9175 24.0026 29.7981 24.3022C29.6787 24.6018 29.4372 24.8315 28.9542 25.291C28.8277 25.4114 28.9192 25.6242 29.0936 25.6151C29.7593 25.5807 30.0922 25.5635 30.3918 25.6829C30.6913 25.8023 30.9211 26.0438 31.3806 26.5267C31.5009 26.6532 31.7137 26.5617 31.7047 26.3873C31.6703 25.7216 31.653 25.3887 31.7725 25.0892C31.8919 24.7896 32.1333 24.5599 32.6163 24.1004C32.7428 23.98 32.6513 23.7672 32.4769 23.7762C31.8112 23.8107 31.4783 23.8279 31.1787 23.7085C30.8792 23.5891 30.6494 23.3476 30.19 22.8647Z" fill="url(#paint5_linear_305_4990)" fill-opacity="0.7"/>
<path d="M36.3013 22.8647C36.1809 22.7382 35.9681 22.8297 35.9771 23.0041C36.0116 23.6698 36.0288 24.0026 35.9094 24.3022C35.79 24.6018 35.5485 24.8315 35.0656 25.291C34.9391 25.4114 35.0306 25.6242 35.205 25.6151C35.8707 25.5807 36.2035 25.5635 36.5031 25.6829C36.8027 25.8023 37.0324 26.0438 37.4919 26.5267C37.6123 26.6532 37.8251 26.5617 37.816 26.3873C37.7816 25.7216 37.7644 25.3887 37.8838 25.0892C38.0032 24.7896 38.2447 24.5599 38.7276 24.1004C38.8541 23.98 38.7626 23.7672 38.5882 23.7762C37.9225 23.8107 37.5896 23.8279 37.2901 23.7085C36.9905 23.5891 36.7608 23.3476 36.3013 22.8647Z" fill="url(#paint6_linear_305_4990)" fill-opacity="0.7"/>
<path d="M31.4204 30.1889C31.3001 30.0624 31.0872 30.1539 31.0963 30.3283C31.1307 30.994 31.1479 31.3269 31.0285 31.6264C30.9091 31.926 30.6677 32.1557 30.1847 32.6152C30.0582 32.7356 30.1497 32.9484 30.3241 32.9394C30.9898 32.9049 31.3227 32.8877 31.6222 33.0071C31.9218 33.1265 32.1515 33.368 32.611 33.8509C32.7314 33.9774 32.9442 33.8859 32.9352 33.7115C32.9007 33.0458 32.8835 32.713 33.0029 32.4134C33.1223 32.1138 33.3638 31.8841 33.8467 31.4246C33.9733 31.3042 33.8817 31.0914 33.7074 31.1005C33.0416 31.1349 32.7088 31.1521 32.4092 31.0327C32.1097 30.9133 31.8799 30.6718 31.4204 30.1889Z" fill="url(#paint7_linear_305_4990)" fill-opacity="0.7"/>
<path d="M24.104 32.6381C23.9836 32.5116 23.7708 32.6031 23.7799 32.7775C23.8143 33.4432 23.8315 33.7761 23.7121 34.0756C23.5927 34.3752 23.3513 34.6049 22.8683 35.0644C22.7418 35.1848 22.8333 35.3976 23.0077 35.3886C23.6734 35.3541 24.0063 35.3369 24.3058 35.4563C24.6054 35.5757 24.8351 35.8172 25.2946 36.3001C25.415 36.4267 25.6278 36.3351 25.6188 36.1608C25.5843 35.495 25.5671 35.1622 25.6865 34.8626C25.8059 34.5631 26.0474 34.3333 26.5303 33.8738C26.6568 33.7534 26.5653 33.5406 26.3909 33.5497C25.7252 33.5841 25.3924 33.6013 25.0928 33.4819C24.7932 33.3625 24.5635 33.1211 24.104 32.6381Z" fill="url(#paint8_linear_305_4990)" fill-opacity="0.7"/>
<path d="M5.75831 21.642C5.63794 21.5155 5.42514 21.607 5.43416 21.7814C5.46861 22.4471 5.48583 22.78 5.36643 23.0796C5.24703 23.3791 5.00555 23.6089 4.52261 24.0683C4.39609 24.1887 4.4876 24.4015 4.66199 24.3925C5.32771 24.358 5.66057 24.3408 5.96014 24.4602C6.25969 24.5796 6.48944 24.8211 6.94893 25.304C7.0693 25.4306 7.2821 25.3391 7.27307 25.1647C7.23863 24.4989 7.22141 24.1661 7.34081 23.8665C7.46021 23.567 7.70169 23.3372 8.18463 22.8777C8.31115 22.7574 8.21964 22.5446 8.04524 22.5536C7.37953 22.588 7.04667 22.6052 6.74711 22.4858C6.44755 22.3664 6.2178 22.125 5.75831 21.642Z" fill="url(#paint9_linear_305_4990)" fill-opacity="0.7"/>
<path d="M26.5337 19.1928C26.4133 19.0663 26.2005 19.1578 26.2096 19.3322C26.244 19.9979 26.2612 20.3308 26.1418 20.6303C26.0224 20.9299 25.7809 21.1596 25.298 21.6191C25.1715 21.7395 25.263 21.9523 25.4374 21.9433C26.1031 21.9088 26.436 21.8916 26.7355 22.011C27.0351 22.1304 27.2648 22.3719 27.7243 22.8548C27.8447 22.9813 28.0575 22.8898 28.0485 22.7154C28.014 22.0497 27.9968 21.7169 28.1162 21.4173C28.2356 21.1177 28.4771 20.888 28.96 20.4285C29.0865 20.3081 28.995 20.0953 28.8206 20.1044C28.1549 20.1388 27.8221 20.156 27.5225 20.0366C27.2229 19.9172 26.9932 19.6757 26.5337 19.1928Z" fill="url(#paint10_linear_305_4990)" fill-opacity="0.7"/>
<path d="M32.647 17.9741C32.5266 17.8475 32.3138 17.939 32.3228 18.1134C32.3573 18.7792 32.3745 19.112 32.2551 19.4116C32.1357 19.7111 31.8942 19.9409 31.4113 20.4004C31.2848 20.5207 31.3763 20.7335 31.5507 20.7245C32.2164 20.6901 32.5492 20.6729 32.8488 20.7923C33.1484 20.9117 33.3781 21.1531 33.8376 21.6361C33.958 21.7626 34.1708 21.6711 34.1617 21.4967C34.1273 20.831 34.1101 20.4981 34.2295 20.1986C34.3489 19.899 34.5904 19.6692 35.0733 19.2098C35.1998 19.0894 35.1083 18.8766 34.9339 18.8856C34.2682 18.9201 33.9353 18.9373 33.6358 18.8179C33.3362 18.6985 33.1065 18.457 32.647 17.9741Z" fill="url(#paint11_linear_305_4990)" fill-opacity="0.7"/>
<path d="M28.9849 14.3139C28.8645 14.1874 28.6517 14.2789 28.6607 14.4533C28.6952 15.119 28.7124 15.4519 28.593 15.7514C28.4736 16.051 28.2321 16.2807 27.7492 16.7402C27.6227 16.8606 27.7142 17.0734 27.8886 17.0644C28.5543 17.0299 28.8871 17.0127 29.1867 17.1321C29.4863 17.2515 29.716 17.493 30.1755 17.9759C30.2959 18.1024 30.5087 18.0109 30.4996 17.8365C30.4652 17.1708 30.448 16.838 30.5674 16.5384C30.6868 16.2388 30.9283 16.0091 31.4112 15.5496C31.5377 15.4292 31.4462 15.2164 31.2718 15.2255C30.6061 15.2599 30.2732 15.2771 29.9737 15.1577C29.6741 15.0383 29.4444 14.7968 28.9849 14.3139Z" fill="url(#paint12_linear_305_4990)" fill-opacity="0.7"/>
<path d="M25.3032 11.8686C25.1829 11.7421 24.9701 11.8336 24.9791 12.008C25.0135 12.6737 25.0308 13.0065 24.9113 13.3061C24.7919 13.6057 24.5505 13.8354 24.0675 14.2949C23.941 14.4153 24.0325 14.6281 24.2069 14.6191C24.8726 14.5846 25.2055 14.5674 25.5051 14.6868C25.8046 14.8062 26.0344 15.0477 26.4938 15.5306C26.6142 15.6571 26.827 15.5656 26.818 15.3912C26.7836 14.7255 26.7663 14.3926 26.8857 14.0931C27.0051 13.7935 27.2466 13.5638 27.7296 13.1043C27.8561 12.9839 27.7646 12.7711 27.5902 12.7801C26.9245 12.8146 26.5916 12.8318 26.292 12.7124C25.9925 12.593 25.7627 12.3515 25.3032 11.8686Z" fill="url(#paint13_linear_305_4990)" fill-opacity="0.7"/>
<path d="M26.5337 4.53655C26.4133 4.41004 26.2005 4.50154 26.2096 4.67594C26.244 5.34165 26.2612 5.67452 26.1418 5.97408C26.0224 6.27364 25.7809 6.50339 25.298 6.96287C25.1715 7.08324 25.263 7.29604 25.4374 7.28702C26.1031 7.25257 26.436 7.23535 26.7355 7.35476C27.0351 7.47416 27.2648 7.71563 27.7243 8.19858C27.8447 8.32509 28.0575 8.23359 28.0485 8.05919C28.014 7.39348 27.9968 7.06061 28.1162 6.76105C28.2356 6.46149 28.4771 6.23174 28.96 5.77226C29.0865 5.65189 28.995 5.43909 28.8206 5.44811C28.1549 5.48255 27.8221 5.49978 27.5225 5.38037C27.2229 5.26097 26.9932 5.01949 26.5337 4.53655Z" fill="url(#paint14_linear_305_4990)" fill-opacity="0.7"/>
<path d="M19.2192 27.7514C19.0989 27.6249 18.8861 27.7164 18.8951 27.8908C18.9295 28.5565 18.9468 28.8894 18.8274 29.1889C18.708 29.4885 18.4665 29.7182 17.9835 30.1777C17.857 30.2981 17.9485 30.5109 18.1229 30.5019C18.7886 30.4674 19.1215 30.4502 19.4211 30.5696C19.7206 30.689 19.9504 30.9305 20.4099 31.4134C20.5302 31.5399 20.743 31.4484 20.734 31.274C20.6996 30.6083 20.6823 30.2755 20.8018 29.9759C20.9211 29.6763 21.1626 29.4466 21.6456 28.9871C21.7721 28.8667 21.6806 28.6539 21.5062 28.663C20.8405 28.6974 20.5076 28.7146 20.208 28.5952C19.9085 28.4758 19.6787 28.2343 19.2192 27.7514Z" fill="url(#paint15_linear_305_4990)" fill-opacity="0.7"/>
<path d="M9.42433 15.5326C9.30396 15.4061 9.09116 15.4976 9.10018 15.672C9.13462 16.3377 9.15185 16.6706 9.03244 16.9702C8.91304 17.2697 8.67157 17.4995 8.18862 17.959C8.06211 18.0793 8.15361 18.2921 8.32801 18.2831C8.99372 18.2487 9.32659 18.2314 9.62615 18.3508C9.92571 18.4703 10.1555 18.7117 10.6149 19.1947C10.7353 19.3212 10.9481 19.2297 10.9391 19.0553C10.9046 18.3896 10.8874 18.0567 11.0068 17.7571C11.1262 17.4576 11.3677 17.2278 11.8506 16.7684C11.9772 16.648 11.8857 16.4352 11.7113 16.4442C11.0455 16.4786 10.7127 16.4959 10.4131 16.3765C10.1136 16.2571 9.88381 16.0156 9.42433 15.5326Z" fill="url(#paint16_linear_305_4990)" fill-opacity="0.7"/>
<path d="M20.4048 10.6459C20.2844 10.5194 20.0716 10.6109 20.0806 10.7853C20.1151 11.451 20.1323 11.7839 20.0129 12.0835C19.8935 12.383 19.652 12.6128 19.1691 13.0722C19.0426 13.1926 19.1341 13.4054 19.3085 13.3964C19.9742 13.3619 20.3071 13.3447 20.6066 13.4641C20.9062 13.5835 21.1359 13.825 21.5954 14.308C21.7158 14.4345 21.9286 14.343 21.9196 14.1686C21.8851 13.5029 21.8679 13.17 21.9873 12.8704C22.1067 12.5709 22.3482 12.3411 22.8311 11.8816C22.9576 11.7613 22.8661 11.5485 22.6917 11.5575C22.026 11.5919 21.6931 11.6092 21.3936 11.4897C21.094 11.3703 20.8643 11.1289 20.4048 10.6459Z" fill="url(#paint17_linear_305_4990)" fill-opacity="0.7"/>
<path d="M20.4048 22.8647C20.2844 22.7382 20.0716 22.8297 20.0806 23.0041C20.1151 23.6698 20.1323 24.0026 20.0129 24.3022C19.8935 24.6018 19.652 24.8315 19.1691 25.291C19.0426 25.4114 19.1341 25.6242 19.3085 25.6151C19.9742 25.5807 20.3071 25.5635 20.6066 25.6829C20.9062 25.8023 21.1359 26.0438 21.5954 26.5267C21.7158 26.6532 21.9286 26.5617 21.9196 26.3873C21.8851 25.7216 21.8679 25.3887 21.9873 25.0892C22.1067 24.7896 22.3482 24.5599 22.8311 24.1004C22.9576 23.98 22.8661 23.7672 22.6917 23.7762C22.026 23.8107 21.6931 23.8279 21.3936 23.7085C21.094 23.5891 20.8643 23.3476 20.4048 22.8647Z" fill="url(#paint18_linear_305_4990)" fill-opacity="0.7"/>
<path d="M21.6528 16.7553C21.5325 16.6288 21.3197 16.7203 21.3287 16.8947C21.3631 17.5604 21.3804 17.8933 21.261 18.1928C21.1416 18.4924 20.9001 18.7221 20.4171 19.1816C20.2906 19.302 20.3821 19.5148 20.5565 19.5058C21.2222 19.4713 21.5551 19.4541 21.8547 19.5735C22.1542 19.6929 22.384 19.9344 22.8435 20.4173C22.9638 20.5438 23.1766 20.4523 23.1676 20.2779C23.1332 19.6122 23.1159 19.2794 23.2353 18.9798C23.3547 18.6802 23.5962 18.4505 24.0792 17.991C24.2057 17.8706 24.1142 17.6578 23.9398 17.6669C23.2741 17.7013 22.9412 17.7185 22.6416 17.5991C22.3421 17.4797 22.1123 17.2382 21.6528 16.7553Z" fill="url(#paint19_linear_305_4990)" fill-opacity="0.7"/>
<path d="M15.5415 14.3139C15.4211 14.1874 15.2083 14.2789 15.2174 14.4533C15.2518 15.119 15.269 15.4519 15.1496 15.7514C15.0302 16.051 14.7888 16.2807 14.3058 16.7402C14.1793 16.8606 14.2708 17.0734 14.4452 17.0644C15.1109 17.0299 15.4438 17.0127 15.7433 17.1321C16.0429 17.2515 16.2726 17.493 16.7321 17.9759C16.8525 18.1024 17.0653 18.0109 17.0563 17.8365C17.0218 17.1708 17.0046 16.838 17.124 16.5384C17.2434 16.2388 17.4849 16.0091 17.9678 15.5496C18.0943 15.4292 18.0028 15.2164 17.8284 15.2255C17.1627 15.2599 16.8299 15.2771 16.5303 15.1577C16.2307 15.0383 16.001 14.7968 15.5415 14.3139Z" fill="url(#paint20_linear_305_4990)" fill-opacity="0.7"/>
<path d="M15.5415 14.3139C15.4211 14.1874 15.2083 14.2789 15.2174 14.4533C15.2518 15.119 15.269 15.4519 15.1496 15.7514C15.0302 16.051 14.7888 16.2807 14.3058 16.7402C14.1793 16.8606 14.2708 17.0734 14.4452 17.0644C15.1109 17.0299 15.4438 17.0127 15.7433 17.1321C16.0429 17.2515 16.2726 17.493 16.7321 17.9759C16.8525 18.1024 17.0653 18.0109 17.0563 17.8365C17.0218 17.1708 17.0046 16.838 17.124 16.5384C17.2434 16.2388 17.4849 16.0091 17.9678 15.5496C18.0943 15.4292 18.0028 15.2164 17.8284 15.2255C17.1627 15.2599 16.8299 15.2771 16.5303 15.1577C16.2307 15.0383 16.001 14.7968 15.5415 14.3139Z" fill="url(#paint21_linear_305_4990)" fill-opacity="0.7"/>
<path d="M13.1392 6.98186C13.0188 6.85535 12.806 6.94686 12.815 7.12125C12.8495 7.78696 12.8667 8.11983 12.7473 8.41939C12.6279 8.71895 12.3864 8.9487 11.9035 9.40818C11.777 9.52855 11.8685 9.74136 12.0429 9.73233C12.7086 9.69789 13.0414 9.68066 13.341 9.80007C13.6406 9.91947 13.8703 10.1609 14.3298 10.6439C14.4502 10.7704 14.663 10.6789 14.6539 10.5045C14.6195 9.83879 14.6023 9.50592 14.7217 9.20637C14.8411 8.90681 15.0825 8.67706 15.5655 8.21757C15.692 8.0972 15.6005 7.8844 15.4261 7.89342C14.7604 7.92787 14.4275 7.94509 14.128 7.82568C13.8284 7.70629 13.5987 7.46481 13.1392 6.98186Z" fill="url(#paint22_linear_305_4990)" fill-opacity="0.7"/>
<path d="M17.966 13.6133H22.737C23.0453 13.6133 23.3303 13.7675 23.4856 14.0184L28.5408 22.184C28.8778 22.7283 28.4611 23.412 27.7922 23.412H24.4645C23.8652 23.412 23.4468 23.9714 23.6484 24.5031L25.0794 28.2785C25.3957 29.113 24.2729 29.7581 23.6304 29.111L15.2833 20.7036C14.7653 20.1818 15.1579 19.3292 15.9162 19.3292H18.321C18.9759 19.3292 19.3942 18.671 19.0849 18.127L17.2021 14.8154C16.8928 14.2715 17.311 13.6133 17.966 13.6133Z" fill="#DADADA"/>
<path d="M17.966 13.6133H22.737C23.0453 13.6133 23.3303 13.7675 23.4856 14.0184L28.5408 22.184C28.8778 22.7283 28.4611 23.412 27.7922 23.412H24.4645C23.8652 23.412 23.4468 23.9714 23.6484 24.5031L25.0794 28.2785C25.3957 29.113 24.2729 29.7581 23.6304 29.111L15.2833 20.7036C14.7653 20.1818 15.1579 19.3292 15.9162 19.3292H18.321C18.9759 19.3292 19.3942 18.671 19.0849 18.127L17.2021 14.8154C16.8928 14.2715 17.311 13.6133 17.966 13.6133Z" fill="#FDFDFD"/>
<path d="M116.001 28.0905H113.852V25.9414H116.001V28.0905Z" fill="#444CFF"/>
<path d="M105.398 28.0944H103.15L106.936 22.9484L103.486 18.0391H105.694L108.099 21.6274H108.139L110.505 18.0391H112.713L109.262 22.9484L113.087 28.0944H110.82L108.099 24.2497H108.06L105.398 28.0944Z" fill="#444CFF"/>
<path d="M103.246 22.8489C103.246 23.1249 103.246 23.4207 103.226 23.5784H95.4972C95.5366 25.2543 96.5225 26.8119 98.5138 26.8119C100.288 26.8119 100.978 25.6683 101.156 24.998H103.127C102.595 26.9302 101.116 28.3892 98.4744 28.3892C95.2803 28.3892 93.5059 26.1218 93.5059 23.0461C93.5059 19.8914 95.3986 17.7227 98.4744 17.7227C101.53 17.7227 103.246 19.7337 103.246 22.8489ZM95.4972 22.0602H101.235C101.235 20.4829 100.131 19.3 98.4152 19.3C96.7985 19.3 95.6155 20.4041 95.4972 22.0602Z" fill="#444CFF"/>
<path d="M92.2548 17.8047C92.6097 17.8047 92.8857 17.8244 93.1815 17.8638V19.7172C92.9449 19.6777 92.7674 19.658 92.5308 19.658C90.7761 19.658 89.5142 20.979 89.5142 22.8915V28.0966H87.582V18.0413H89.5142V19.9538H89.5537C90.086 18.6919 90.8944 17.8047 92.2548 17.8047Z" fill="#444CFF"/>
<path d="M82.1433 17.7461C83.9967 17.7461 85.4951 18.8108 85.4951 21.1176V28.0972H83.5629V21.6499C83.5629 20.3092 82.9714 19.4023 81.5124 19.4023C79.8563 19.4023 78.7916 20.4078 78.7916 21.926V28.0972H76.8594V14H78.7916V19.3037H78.831C79.3633 18.5347 80.4083 17.7461 82.1433 17.7461Z" fill="#444CFF"/>
<path d="M69.1637 28.3695C67.1527 28.3695 65.8711 27.2062 65.8711 25.4909C65.8711 23.2432 67.5667 22.5729 70.0707 22.0997C71.648 21.8039 72.6141 21.6068 72.6141 20.621C72.6141 19.8914 72.1803 19.2802 70.7016 19.2802C68.9468 19.2802 68.4145 19.8323 68.3159 21.173H66.3443C66.4429 19.2408 67.7047 17.7227 70.7805 17.7227C72.8507 17.7227 74.5068 18.5902 74.5068 21.1927V25.8063C74.5068 26.5358 74.6054 26.9105 74.98 26.9105C75.0392 26.9105 75.0983 26.9105 75.2166 26.8907V28.0737C74.8814 28.1526 74.5463 28.192 74.2308 28.192C73.2647 28.192 72.7521 27.8174 72.6338 26.6739H72.5944C71.9437 27.7188 70.8002 28.3695 69.1637 28.3695ZM69.5975 26.8119C71.3325 26.8119 72.6141 25.9246 72.6141 24.1699V22.7306C72.2986 23.0263 71.4311 23.2432 70.4058 23.4601C68.6314 23.815 67.8822 24.3079 67.8822 25.3529C67.8822 26.2992 68.3948 26.8119 69.5975 26.8119Z" fill="#444CFF"/>
<path d="M64.9623 28.0972H54V26.2241L62.1034 15.9125V15.873H54.3943V14H64.7651V15.873L56.6617 26.1847V26.2241H64.9623V28.0972Z" fill="#444CFF"/>
<defs>
<radialGradient id="paint0_radial_305_4990" cx="0" cy="0" r="1" gradientUnits="userSpaceOnUse" gradientTransform="translate(18.275 -2.15) rotate(116.565) scale(40.8641 35.9655)">
<stop offset="0.0680526" stop-color="#9A9EFF"/>
<stop offset="0.465922" stop-color="#424AFF"/>
<stop offset="1" stop-color="#131028"/>
</radialGradient>
<linearGradient id="paint1_linear_305_4990" x1="14.3351" y1="13.6007" x2="14.9628" y2="24.2615" gradientUnits="userSpaceOnUse">
<stop stop-color="#EAEBFF"/>
<stop offset="1" stop-color="white" stop-opacity="0"/>
</linearGradient>
<linearGradient id="paint2_linear_305_4990" x1="11.8957" y1="19.7101" x2="12.5233" y2="30.3708" gradientUnits="userSpaceOnUse">
<stop stop-color="#EAEBFF"/>
<stop offset="1" stop-color="white" stop-opacity="0"/>
</linearGradient>
<linearGradient id="paint3_linear_305_4990" x1="15.5558" y1="27.0382" x2="16.1835" y2="37.699" gradientUnits="userSpaceOnUse">
<stop stop-color="#EAEBFF"/>
<stop offset="1" stop-color="white" stop-opacity="0"/>
</linearGradient>
<linearGradient id="paint4_linear_305_4990" x1="26.548" y1="18.4913" x2="27.1757" y2="29.1521" gradientUnits="userSpaceOnUse">
<stop stop-color="#EAEBFF"/>
<stop offset="1" stop-color="white" stop-opacity="0"/>
</linearGradient>
<linearGradient id="paint5_linear_305_4990" x1="30.2043" y1="16.046" x2="30.8319" y2="26.7068" gradientUnits="userSpaceOnUse">
<stop stop-color="#EAEBFF"/>
<stop offset="1" stop-color="white" stop-opacity="0"/>
</linearGradient>
<linearGradient id="paint6_linear_305_4990" x1="36.3156" y1="16.046" x2="36.9432" y2="26.7068" gradientUnits="userSpaceOnUse">
<stop stop-color="#EAEBFF"/>
<stop offset="1" stop-color="white" stop-opacity="0"/>
</linearGradient>
<linearGradient id="paint7_linear_305_4990" x1="31.4348" y1="23.3702" x2="32.0624" y2="34.031" gradientUnits="userSpaceOnUse">
<stop stop-color="#EAEBFF"/>
<stop offset="1" stop-color="white" stop-opacity="0"/>
</linearGradient>
<linearGradient id="paint8_linear_305_4990" x1="24.1183" y1="25.8195" x2="24.746" y2="36.4802" gradientUnits="userSpaceOnUse">
<stop stop-color="#EAEBFF"/>
<stop offset="1" stop-color="white" stop-opacity="0"/>
</linearGradient>
<linearGradient id="paint9_linear_305_4990" x1="5.77264" y1="14.8234" x2="6.40026" y2="25.4841" gradientUnits="userSpaceOnUse">
<stop stop-color="#EAEBFF"/>
<stop offset="1" stop-color="white" stop-opacity="0"/>
</linearGradient>
<linearGradient id="paint10_linear_305_4990" x1="26.548" y1="12.3741" x2="27.1757" y2="23.0349" gradientUnits="userSpaceOnUse">
<stop stop-color="#EAEBFF"/>
<stop offset="1" stop-color="white" stop-opacity="0"/>
</linearGradient>
<linearGradient id="paint11_linear_305_4990" x1="32.6613" y1="11.1554" x2="33.2889" y2="21.8162" gradientUnits="userSpaceOnUse">
<stop stop-color="#EAEBFF"/>
<stop offset="1" stop-color="white" stop-opacity="0"/>
</linearGradient>
<linearGradient id="paint12_linear_305_4990" x1="28.9992" y1="7.49524" x2="29.6268" y2="18.156" gradientUnits="userSpaceOnUse">
<stop stop-color="#EAEBFF"/>
<stop offset="1" stop-color="white" stop-opacity="0"/>
</linearGradient>
<linearGradient id="paint13_linear_305_4990" x1="25.3176" y1="5.04993" x2="25.9452" y2="15.7107" gradientUnits="userSpaceOnUse">
<stop stop-color="#EAEBFF"/>
<stop offset="1" stop-color="white" stop-opacity="0"/>
</linearGradient>
<linearGradient id="paint14_linear_305_4990" x1="26.548" y1="-2.28211" x2="27.1757" y2="8.37866" gradientUnits="userSpaceOnUse">
<stop stop-color="#EAEBFF"/>
<stop offset="1" stop-color="white" stop-opacity="0"/>
</linearGradient>
<linearGradient id="paint15_linear_305_4990" x1="19.2336" y1="20.9327" x2="19.8612" y2="31.5935" gradientUnits="userSpaceOnUse">
<stop stop-color="#EAEBFF"/>
<stop offset="1" stop-color="white" stop-opacity="0"/>
</linearGradient>
<linearGradient id="paint16_linear_305_4990" x1="9.43866" y1="8.71399" x2="10.0663" y2="19.3748" gradientUnits="userSpaceOnUse">
<stop stop-color="#EAEBFF"/>
<stop offset="1" stop-color="white" stop-opacity="0"/>
</linearGradient>
<linearGradient id="paint17_linear_305_4990" x1="20.4191" y1="3.82727" x2="21.0467" y2="14.488" gradientUnits="userSpaceOnUse">
<stop stop-color="#EAEBFF"/>
<stop offset="1" stop-color="white" stop-opacity="0"/>
</linearGradient>
<linearGradient id="paint18_linear_305_4990" x1="20.4191" y1="16.046" x2="21.0467" y2="26.7068" gradientUnits="userSpaceOnUse">
<stop stop-color="#EAEBFF"/>
<stop offset="1" stop-color="white" stop-opacity="0"/>
</linearGradient>
<linearGradient id="paint19_linear_305_4990" x1="21.6672" y1="9.93664" x2="22.2948" y2="20.5974" gradientUnits="userSpaceOnUse">
<stop stop-color="#EAEBFF"/>
<stop offset="1" stop-color="white" stop-opacity="0"/>
</linearGradient>
<linearGradient id="paint20_linear_305_4990" x1="15.5558" y1="7.49524" x2="16.1835" y2="18.156" gradientUnits="userSpaceOnUse">
<stop stop-color="#EAEBFF"/>
<stop offset="1" stop-color="white" stop-opacity="0"/>
</linearGradient>
<linearGradient id="paint21_linear_305_4990" x1="15.5558" y1="7.49524" x2="16.1835" y2="18.156" gradientUnits="userSpaceOnUse">
<stop stop-color="#EAEBFF"/>
<stop offset="1" stop-color="white" stop-opacity="0"/>
</linearGradient>
<linearGradient id="paint22_linear_305_4990" x1="13.1535" y1="0.163206" x2="13.7811" y2="10.824" gradientUnits="userSpaceOnUse">
<stop stop-color="#EAEBFF"/>
<stop offset="1" stop-color="white" stop-opacity="0"/>
</linearGradient>
</defs>
</svg>
