<svg width="48" height="42" viewBox="0 0 48 42" fill="none" xmlns="http://www.w3.org/2000/svg">
<path d="M24.9525 9.85938H34.9351C35.58 9.85938 36.1764 10.1703 36.5013 10.6759L47.0784 27.1336C47.7835 28.2307 46.9116 29.6086 45.5122 29.6086H38.5495C37.2956 29.6086 36.4202 30.7361 36.8419 31.8079L39.836 39.4172C40.4978 41.099 38.1485 42.3992 36.8043 41.095L19.3395 24.1498C18.2557 23.0983 19.0772 21.3798 20.6637 21.3798H25.6953C27.0656 21.3798 27.9407 20.0532 27.2936 18.9568L23.3542 12.2823C22.7071 11.186 23.5822 9.85938 24.9525 9.85938Z" fill="#444CFF"/>
<path d="M24.9525 9.85938H34.9351C35.58 9.85938 36.1764 10.1703 36.5013 10.6759L47.0784 27.1336C47.7835 28.2307 46.9116 29.6086 45.5122 29.6086H38.5495C37.2956 29.6086 36.4202 30.7361 36.8419 31.8079L39.836 39.4172C40.4978 41.099 38.1485 42.3992 36.8043 41.095L19.3395 24.1498C18.2557 23.0983 19.0772 21.3798 20.6637 21.3798H25.6953C27.0656 21.3798 27.9407 20.0532 27.2936 18.9568L23.3542 12.2823C22.7071 11.186 23.5822 9.85938 24.9525 9.85938Z" fill="#444CFF"/>
<path d="M24.9525 9.85938H34.9351C35.58 9.85938 36.1764 10.1703 36.5013 10.6759L47.0784 27.1336C47.7835 28.2307 46.9116 29.6086 45.5122 29.6086H38.5495C37.2956 29.6086 36.4202 30.7361 36.8419 31.8079L39.836 39.4172C40.4978 41.099 38.1485 42.3992 36.8043 41.095L19.3395 24.1498C18.2557 23.0983 19.0772 21.3798 20.6637 21.3798H25.6953C27.0656 21.3798 27.9407 20.0532 27.2936 18.9568L23.3542 12.2823C22.7071 11.186 23.5822 9.85938 24.9525 9.85938Z" fill="url(#paint0_radial_305_5026)"/>
<path d="M11.1734 3.95686C10.9499 3.35305 10.0959 3.35305 9.87243 3.95686C9.0195 6.2616 8.59302 7.414 7.75228 8.25465C6.91156 9.09527 5.75903 9.5217 3.45402 10.3745C2.85023 10.5979 2.85023 11.4519 3.45402 11.6753C5.75903 12.5281 6.91156 12.9546 7.75231 13.7952C8.59302 14.6358 9.0195 15.7882 9.87242 18.093C10.0959 18.6968 10.9499 18.6968 11.1734 18.093C12.0263 15.7882 12.4528 14.6358 13.2935 13.7952C14.1342 12.9546 15.2868 12.5281 17.5918 11.6753C18.1956 11.4519 18.1956 10.5979 17.5918 10.3745C15.2868 9.5217 14.1342 9.09527 13.2935 8.25462C12.4528 7.414 12.0263 6.2616 11.1734 3.95686Z" fill="#424AFF"/>
<path d="M11.1734 3.95686C10.9499 3.35305 10.0959 3.35305 9.87243 3.95686C9.0195 6.2616 8.59302 7.414 7.75228 8.25465C6.91156 9.09527 5.75903 9.5217 3.45402 10.3745C2.85023 10.5979 2.85023 11.4519 3.45402 11.6753C5.75903 12.5281 6.91156 12.9546 7.75231 13.7952C8.59302 14.6358 9.0195 15.7882 9.87242 18.093C10.0959 18.6968 10.9499 18.6968 11.1734 18.093C12.0263 15.7882 12.4528 14.6358 13.2935 13.7952C14.1342 12.9546 15.2868 12.5281 17.5918 11.6753C18.1956 11.4519 18.1956 10.5979 17.5918 10.3745C15.2868 9.5217 14.1342 9.09527 13.2935 8.25462C12.4528 7.414 12.0263 6.2616 11.1734 3.95686Z" fill="url(#paint1_radial_305_5026)"/>
<path d="M4.16234 2.19539C4.06947 1.94443 3.71452 1.94443 3.62165 2.19539C3.26716 3.15335 3.0899 3.63233 2.74047 3.98174C2.39106 4.33114 1.91204 4.50838 0.954035 4.86286C0.703079 4.95571 0.703079 5.31066 0.954035 5.40352C1.91204 5.75799 2.39106 5.93524 2.74049 6.28465C3.0899 6.63404 3.26716 7.11303 3.62165 8.07098C3.71452 8.32194 4.06947 8.32194 4.16234 8.07098C4.51683 7.11303 4.69409 6.63404 5.04352 6.28465C5.39293 5.93524 5.87195 5.75799 6.82995 5.40352C7.08091 5.31066 7.08091 4.95571 6.82995 4.86286C5.87195 4.50838 5.39293 4.33114 5.04352 3.98173C4.69409 3.63233 4.51683 3.15335 4.16234 2.19539Z" fill="#424AFF"/>
<path d="M4.16234 2.19539C4.06947 1.94443 3.71452 1.94443 3.62165 2.19539C3.26716 3.15335 3.0899 3.63233 2.74047 3.98174C2.39106 4.33114 1.91204 4.50838 0.954035 4.86286C0.703079 4.95571 0.703079 5.31066 0.954035 5.40352C1.91204 5.75799 2.39106 5.93524 2.74049 6.28465C3.0899 6.63404 3.26716 7.11303 3.62165 8.07098C3.71452 8.32194 4.06947 8.32194 4.16234 8.07098C4.51683 7.11303 4.69409 6.63404 5.04352 6.28465C5.39293 5.93524 5.87195 5.75799 6.82995 5.40352C7.08091 5.31066 7.08091 4.95571 6.82995 4.86286C5.87195 4.50838 5.39293 4.33114 5.04352 3.98173C4.69409 3.63233 4.51683 3.15335 4.16234 2.19539Z" fill="url(#paint2_radial_305_5026)"/>
<path d="M7.32824 0.365275C7.28181 0.239795 7.10433 0.239795 7.05789 0.365275C6.88065 0.844251 6.79202 1.08375 6.61731 1.25845C6.4426 1.43315 6.20309 1.52177 5.72409 1.69901C5.59861 1.74544 5.59861 1.92291 5.72409 1.96934C6.20309 2.14657 6.4426 2.2352 6.61731 2.4099C6.79202 2.5846 6.88065 2.82409 7.05789 3.30307C7.10433 3.42855 7.28181 3.42855 7.32824 3.30307C7.50549 2.82409 7.59411 2.5846 7.76883 2.4099C7.94354 2.2352 8.18304 2.14657 8.66205 1.96934C8.78753 1.92291 8.78753 1.74544 8.66205 1.69901C8.18304 1.52177 7.94354 1.43315 7.76883 1.25844C7.59411 1.08375 7.50549 0.844251 7.32824 0.365275Z" fill="#424AFF"/>
<path d="M7.32824 0.365275C7.28181 0.239795 7.10433 0.239795 7.05789 0.365275C6.88065 0.844251 6.79202 1.08375 6.61731 1.25845C6.4426 1.43315 6.20309 1.52177 5.72409 1.69901C5.59861 1.74544 5.59861 1.92291 5.72409 1.96934C6.20309 2.14657 6.4426 2.2352 6.61731 2.4099C6.79202 2.5846 6.88065 2.82409 7.05789 3.30307C7.10433 3.42855 7.28181 3.42855 7.32824 3.30307C7.50549 2.82409 7.59411 2.5846 7.76883 2.4099C7.94354 2.2352 8.18304 2.14657 8.66205 1.96934C8.78753 1.92291 8.78753 1.74544 8.66205 1.69901C8.18304 1.52177 7.94354 1.43315 7.76883 1.25844C7.59411 1.08375 7.50549 0.844251 7.32824 0.365275Z" fill="url(#paint3_radial_305_5026)"/>
<defs>
<radialGradient id="paint0_radial_305_5026" cx="0" cy="0" r="1" gradientTransform="matrix(24.2091 13.5012 10.6535 -23.7655 17.4228 28.1257)" gradientUnits="userSpaceOnUse">
<stop offset="0.0680526" stop-color="#9A9EFF"/>
<stop offset="0.465922" stop-color="#424AFF"/>
<stop offset="1" stop-color="#131028"/>
</radialGradient>
<radialGradient id="paint1_radial_305_5026" cx="0" cy="0" r="1" gradientTransform="matrix(15.0054 7.50185 6.6033 -13.2051 0.813509 12.3488)" gradientUnits="userSpaceOnUse">
<stop offset="0.0680526" stop-color="#9A9EFF"/>
<stop offset="0.465922" stop-color="#424AFF"/>
<stop offset="1" stop-color="#131028"/>
</radialGradient>
<radialGradient id="paint2_radial_305_5026" cx="0" cy="0" r="1" gradientTransform="matrix(6.23654 3.11809 2.74446 -5.48861 -0.143413 5.68344)" gradientUnits="userSpaceOnUse">
<stop offset="0.0680526" stop-color="#9A9EFF"/>
<stop offset="0.465922" stop-color="#424AFF"/>
<stop offset="1" stop-color="#131028"/>
</radialGradient>
<radialGradient id="paint3_radial_305_5026" cx="0" cy="0" r="1" gradientTransform="matrix(3.11827 1.55905 1.37223 -2.7443 5.17536 2.1093)" gradientUnits="userSpaceOnUse">
<stop offset="0.0680526" stop-color="#9A9EFF"/>
<stop offset="0.465922" stop-color="#424AFF"/>
<stop offset="1" stop-color="#131028"/>
</radialGradient>
</defs>
</svg>
